<svg width="117" height="112" viewBox="0 0 117 112" fill="none" xmlns="http://www.w3.org/2000/svg">
<path d="M58.5 0C47.7121 0.646487 38.1827 2.42827 20.9057 20.4984C2.10855 40.0664 0.637469 45.7745 0 55.9448C0.637469 66.1782 2.10855 71.8862 20.8403 91.5016C38.1827 109.556 47.7121 111.338 58.4346 112C69.2226 111.354 78.7355 109.572 96.0289 91.5016C114.891 71.8862 116.346 66.1782 117 55.9921C116.346 45.8218 114.957 40.1138 96.1433 20.5141C78.8009 2.42827 69.2879 0.646487 58.5 0Z" fill="#5778A2"/>
<path d="M89.2974 50.6098L81.0299 49.3348C80.5849 47.8598 80.0023 46.4448 79.2949 45.1248L84.2349 38.385C84.8249 37.58 84.7399 36.485 84.0349 35.78L79.2174 30.9625C78.5124 30.2575 77.4149 30.1725 76.6124 30.7625L69.8726 35.705C68.5526 34.9975 67.1401 34.4151 65.6626 33.9701L64.3901 25.7025C64.2376 24.715 63.4026 24 62.4051 24H55.5948C54.5973 24 53.7623 24.715 53.6098 25.7025L52.3348 33.9701C50.8573 34.4151 49.4448 34.9976 48.1248 35.705L41.3875 30.765C40.5825 30.175 39.4874 30.26 38.7825 30.965L33.965 35.7825C33.26 36.4875 33.175 37.5825 33.765 38.3875L38.705 45.1273C37.9975 46.4448 37.4151 47.8598 36.9701 49.3373L28.7025 50.6098C27.715 50.7623 27 51.5949 27 52.5949V59.4051C27 60.4026 27.715 61.2376 28.7025 61.3877L36.9701 62.6627C37.4151 64.1402 37.9976 65.5552 38.705 66.8727L33.765 73.6125C33.175 74.4175 33.26 75.5126 33.965 76.2175L38.7825 81.035C39.4875 81.74 40.585 81.825 41.3875 81.235L48.1273 76.295C49.4448 77.0025 50.8598 77.5849 52.3373 78.0299L53.6123 86.3C53.7623 87.2851 54.5974 88 55.5949 88H62.4051C63.4026 88 64.2376 87.285 64.3877 86.2975L65.6627 78.0274C67.1402 77.5824 68.5527 76.9999 69.8727 76.2924L76.6125 81.2324C77.4175 81.8224 78.5125 81.7374 79.2175 81.0324L84.035 76.215C84.74 75.5099 84.825 74.4125 84.235 73.61L79.2949 66.8701C80.0025 65.5501 80.5849 64.1376 81.0299 62.6601L89.2975 61.3851C90.285 61.2376 91 60.4026 91 59.4051V52.5948C91 51.5973 90.2849 50.7624 89.2974 50.6098ZM90.0149 59.4047C90.0149 59.9122 89.6499 60.3372 89.1474 60.4147L80.5701 61.7372C80.3801 61.7672 80.2251 61.9047 80.1726 62.0872C79.7076 63.7072 79.0726 65.2497 78.2826 66.6723C78.1901 66.8398 78.2026 67.0473 78.3151 67.2023L83.4401 74.1949C83.7401 74.6049 83.6976 75.1624 83.3376 75.5224L78.5201 80.3399C78.1626 80.6974 77.6026 80.7424 77.1926 80.4424L70.2 75.3174C70.045 75.2049 69.8375 75.1924 69.67 75.2849C68.2474 76.0749 66.705 76.7099 65.0849 77.1749C64.8999 77.2274 64.7624 77.3824 64.7349 77.5724L63.4124 86.1497C63.34 86.6497 62.9149 87.0147 62.405 87.0147H55.5947C55.0872 87.0147 54.6622 86.6497 54.5847 86.1472L53.2622 77.5699C53.2322 77.3799 53.0947 77.2249 52.9122 77.1724C51.2922 76.7074 49.7497 76.0723 48.3272 75.2824C48.2522 75.2399 48.1697 75.2199 48.0872 75.2199C47.9847 75.2199 47.8822 75.2524 47.7972 75.3149L40.8045 80.4399C40.3945 80.7399 39.837 80.6974 39.477 80.3374L34.6596 75.5199C34.2996 75.1599 34.2571 74.6024 34.5571 74.1924L39.6821 67.1998C39.7946 67.0448 39.8096 66.8373 39.7146 66.6698C38.927 65.2497 38.2895 63.7073 37.8246 62.0847C37.7721 61.8997 37.6171 61.7647 37.4271 61.7347L28.8523 60.4147C28.3498 60.3372 27.9848 59.9122 27.9848 59.4048V52.5945C27.9848 52.087 28.3498 51.662 28.8523 51.5845L37.4296 50.262C37.6196 50.232 37.7746 50.097 37.8271 49.912C38.2921 48.292 38.9297 46.7495 39.7171 45.327C39.8096 45.1595 39.7971 44.952 39.6846 44.797L34.5596 37.8043C34.2596 37.3943 34.3021 36.8368 34.6621 36.4768L39.4796 31.6594C39.8396 31.2994 40.3971 31.2568 40.8071 31.5568L47.7997 36.6819C47.9548 36.7943 48.1623 36.8068 48.3297 36.7144C49.7523 35.9243 51.2947 35.2893 52.9148 34.8244C53.0998 34.7719 53.2348 34.6169 53.2648 34.4269L54.5873 25.8496C54.6598 25.3496 55.0873 24.9845 55.5948 24.9845H62.405C62.9125 24.9845 63.3375 25.3495 63.415 25.8521L64.7375 34.4294C64.7675 34.6194 64.9025 34.7744 65.0875 34.8269C66.7075 35.2919 68.25 35.9294 69.6725 36.7168C69.84 36.8093 70.0475 36.7968 70.2025 36.6843L77.1952 31.5593C77.6052 31.2593 78.1627 31.3018 78.5227 31.6618L83.3402 36.4793C83.7002 36.8393 83.7427 37.3968 83.4427 37.8068L78.3177 44.7995C78.2052 44.9545 78.1902 45.162 78.2852 45.3295C79.0752 46.752 79.7102 48.2945 80.1751 49.912C80.2276 50.097 80.3826 50.2345 80.5726 50.262L89.1499 51.5845C89.6499 51.6595 90.015 52.0845 90.015 52.5945L90.0149 59.4047Z" fill="white"/>
<path d="M59.0001 39.5059C49.9051 39.5059 42.5054 46.9056 42.5054 56.0006C42.5054 65.0957 49.9051 72.4954 59.0001 72.4954C68.0952 72.4954 75.4949 65.0957 75.4949 56.0006C75.4949 46.9056 68.0952 39.5059 59.0001 39.5059ZM59.0001 71.511C50.4478 71.511 43.4903 64.5536 43.4903 56.0013C43.4903 47.4489 50.4478 40.4915 59.0001 40.4915C67.5525 40.4915 74.5099 47.4489 74.5099 56.0013C74.5099 64.5536 67.5525 71.511 59.0001 71.511Z" fill="white"/>
<path d="M64.5502 51.1369L55.868 59.8166L53.453 57.3992C53.2605 57.2067 52.948 57.2067 52.758 57.3992C52.5655 57.5917 52.5655 57.9042 52.758 58.0941L55.523 60.8591C55.6155 60.9516 55.7405 61.0041 55.8705 61.0041C56.0005 61.0041 56.1255 60.9516 56.218 60.8591L65.2478 51.8294C65.4403 51.6369 65.4403 51.3244 65.2478 51.1344C65.0528 50.9444 64.7428 50.9444 64.5503 51.1369L64.5502 51.1369Z" fill="white"/>
</svg>
