<svg width="117" height="112" viewBox="0 0 117 112" fill="none" xmlns="http://www.w3.org/2000/svg">
<path d="M58.5 0C47.7121 0.646487 38.1827 2.42827 20.9057 20.4984C2.10855 40.0664 0.637469 45.7745 0 55.9448C0.637469 66.1782 2.10855 71.8862 20.8403 91.5016C38.1827 109.556 47.7121 111.338 58.4346 112C69.2226 111.354 78.7355 109.572 96.0289 91.5016C114.891 71.8862 116.346 66.1782 117 55.9921C116.346 45.8218 114.957 40.1138 96.1433 20.5141C78.8009 2.42827 69.2879 0.646487 58.5 0Z" fill="#5778A2"/>
<mask id="path-2-inside-1_1449_5710" fill="white">
<path d="M58 88C51.671 88 45.4841 86.1232 40.2218 82.607C34.9594 79.0908 30.8579 74.0931 28.4359 68.2459C26.0139 62.3986 25.3802 55.9645 26.6149 49.7571C27.8496 43.5497 30.8973 37.8479 35.3726 33.3726C39.8479 28.8973 45.5497 25.8496 51.7571 24.6149C57.9645 23.3801 64.3986 24.0139 70.2459 26.4359C76.0931 28.8579 81.0908 32.9594 84.607 38.2218C88.1232 43.4841 90 49.671 90 56L76.466 56C76.466 52.3478 75.3829 48.7776 73.3539 45.7409C71.3248 42.7042 68.4408 40.3373 65.0666 38.9397C61.6924 37.542 57.9795 37.1764 54.3975 37.8889C50.8154 38.6014 47.5251 40.3601 44.9426 42.9426C42.3601 45.5251 40.6014 48.8154 39.8889 52.3975C39.1764 55.9795 39.542 59.6924 40.9397 63.0666C42.3373 66.4408 44.7042 69.3248 47.7409 71.3539C50.7776 73.3829 54.3478 74.466 58 74.466L58 88Z"/>
</mask>
<path d="M58 88C51.671 88 45.4841 86.1232 40.2218 82.607C34.9594 79.0908 30.8579 74.0931 28.4359 68.2459C26.0139 62.3986 25.3802 55.9645 26.6149 49.7571C27.8496 43.5497 30.8973 37.8479 35.3726 33.3726C39.8479 28.8973 45.5497 25.8496 51.7571 24.6149C57.9645 23.3801 64.3986 24.0139 70.2459 26.4359C76.0931 28.8579 81.0908 32.9594 84.607 38.2218C88.1232 43.4841 90 49.671 90 56L76.466 56C76.466 52.3478 75.3829 48.7776 73.3539 45.7409C71.3248 42.7042 68.4408 40.3373 65.0666 38.9397C61.6924 37.542 57.9795 37.1764 54.3975 37.8889C50.8154 38.6014 47.5251 40.3601 44.9426 42.9426C42.3601 45.5251 40.6014 48.8154 39.8889 52.3975C39.1764 55.9795 39.542 59.6924 40.9397 63.0666C42.3373 66.4408 44.7042 69.3248 47.7409 71.3539C50.7776 73.3829 54.3478 74.466 58 74.466L58 88Z" stroke="white" stroke-width="2" stroke-linecap="round" stroke-linejoin="round" mask="url(#path-2-inside-1_1449_5710)"/>
<mask id="path-3-inside-2_1449_5710" fill="white">
<path d="M89.8192 59.3972C89.0352 66.7398 85.736 73.5853 80.4809 78.773C75.2258 83.9607 68.3383 87.1713 60.9862 87.8604L59.7232 74.3854C63.9658 73.9877 67.9403 72.135 70.9728 69.1414C74.0054 66.1478 75.9092 62.1975 76.3616 57.9604L89.8192 59.3972Z"/>
</mask>
<path d="M89.8192 59.3972C89.0352 66.7398 85.736 73.5853 80.4809 78.773C75.2258 83.9607 68.3383 87.1713 60.9862 87.8604L59.7232 74.3854C63.9658 73.9877 67.9403 72.135 70.9728 69.1414C74.0054 66.1478 75.9092 62.1975 76.3616 57.9604L89.8192 59.3972Z" stroke="white" stroke-width="2" stroke-linecap="round" stroke-linejoin="round" mask="url(#path-3-inside-2_1449_5710)"/>
<circle cx="58.0001" cy="56.0002" r="14.5588" stroke="white" stroke-linecap="round" stroke-linejoin="round"/>
<path d="M56.1177 50.3525L61.7647 54.8343L56.1177 59.7643" stroke="white" stroke-linecap="round" stroke-linejoin="round"/>
</svg>
