<svg width="117" height="112" viewBox="0 0 117 112" fill="none" xmlns="http://www.w3.org/2000/svg">
<path d="M58.5 0C47.7121 0.646487 38.1827 2.42827 20.9057 20.4984C2.10855 40.0664 0.637469 45.7745 0 55.9448C0.637469 66.1782 2.10855 71.8862 20.8403 91.5016C38.1827 109.556 47.7121 111.338 58.4346 112C69.2226 111.354 78.7355 109.572 96.0289 91.5016C114.891 71.8862 116.346 66.1782 117 55.9921C116.346 45.8218 114.957 40.1138 96.1433 20.5141C78.8009 2.42827 69.2879 0.646487 58.5 0Z" fill="#5778A2"/>
<path d="M29 80.2725H89V83.9996H29V80.2725Z" stroke="white" stroke-linecap="round" stroke-linejoin="round"/>
<path d="M33.6875 79.9069V48.9405L41.7473 43.5674L47.75 46.5934V79.9068" stroke="white" stroke-linecap="round" stroke-linejoin="round"/>
<path d="M33.6875 64.0527L39.3125 60.3398V79.9073" stroke="white" stroke-linecap="round" stroke-linejoin="round"/>
<path d="M42.125 43.5674V79.9069" stroke="white" stroke-linecap="round" stroke-linejoin="round"/>
<path d="M47.75 46.2094V35.9471L63.6618 24L71.1875 30.5095V79.907" stroke="white" stroke-linecap="round" stroke-linejoin="round"/>
<path d="M71.1875 51.3903L77.9695 47.2949L85.25 50.7077V79.9073" stroke="white" stroke-linecap="round" stroke-linejoin="round"/>
<path d="M77.75 47.2949V79.9073" stroke="white" stroke-linecap="round" stroke-linejoin="round"/>
<path d="M71.1875 59.425L74.9375 57.5439V79.9067" stroke="white" stroke-linecap="round" stroke-linejoin="round"/>
<path d="M47.75 50.9836L57.125 45.4307V79.9066" stroke="white" stroke-linecap="round" stroke-linejoin="round"/>
<path d="M63.6875 24V79.907" stroke="white" stroke-linecap="round" stroke-linejoin="round"/>
</svg>
