<svg width="72" height="72" viewBox="0 0 72 72" fill="none" xmlns="http://www.w3.org/2000/svg">
<circle cx="36" cy="36" r="36" fill="#F6F6F6"/>
<path d="M42.9739 32.5546L42.3045 32.8929C42.4319 33.1449 42.5568 33.4322 42.6432 33.6783C42.6842 33.8914 42.7964 34.0611 42.9102 34.1744C43.0443 34.3079 43.2555 34.4378 43.5225 34.4537L46.3609 34.752C46.3614 34.752 46.3619 34.7521 46.3623 34.7522C46.3912 34.7558 46.4262 34.7716 46.4569 34.8061C46.4885 34.8417 46.5003 34.8802 46.5003 34.9088V37.4137C46.5003 37.4427 46.4885 37.4809 46.4569 37.5163C46.4261 37.5509 46.3907 37.5668 46.3621 37.5704C46.3616 37.5705 46.3611 37.5705 46.3606 37.5706L43.5252 37.8686C43.3649 37.8768 43.1509 37.9254 42.9593 38.085C42.7659 38.2462 42.6666 38.4605 42.6367 38.6737C42.5602 38.9168 42.4502 39.1395 42.3094 39.4198C42.3094 39.4198 42.3094 39.4198 42.3094 39.4199L42.3037 39.4313L42.3036 39.4312L42.2985 39.4418C42.073 39.9088 42.318 40.3415 42.3536 40.4043C42.3555 40.4076 42.3567 40.4098 42.3574 40.4111L42.3946 40.4838L42.4466 40.5468L44.3077 42.8012L44.3123 42.8067L44.317 42.8122C44.3508 42.8516 44.3561 42.8839 44.3555 42.902C44.3551 42.9169 44.3504 42.9494 44.3058 42.9938L42.5449 44.7472L42.5431 44.749C42.5375 44.7546 42.5046 44.7781 42.4467 44.7814C42.3927 44.7845 42.3644 44.7677 42.3554 44.76L42.3453 44.7513L42.3349 44.743L40.095 42.9579C39.9577 42.8331 39.7741 42.7274 39.5454 42.6985C39.3019 42.6677 39.0988 42.7358 38.9613 42.8056L39.3008 43.4744M42.9739 32.5546L42.3063 32.8964C42.2359 32.7589 42.1667 32.5549 42.1979 32.3099C42.2276 32.0774 42.3367 31.892 42.4639 31.7548L44.3077 29.5214L44.313 29.5149L44.3185 29.5085C44.3258 29.5001 44.3417 29.4738 44.3388 29.4226C44.3355 29.3674 44.313 29.3359 44.3075 29.3305L44.3057 29.3287L42.5449 27.5753C42.5002 27.5308 42.4662 27.525 42.4485 27.5244C42.4276 27.5238 42.3934 27.5302 42.3536 27.5641L42.3443 27.5719L42.3349 27.5795L40.0709 29.3838L40.0111 29.4315L39.9429 29.4661C39.9416 29.4667 39.9392 29.4681 39.9359 29.47C39.8713 29.5061 39.4413 29.747 38.9769 29.5247L38.9665 29.5196L38.9665 29.5196L38.955 29.5138C38.6494 29.3617 38.4114 29.2453 38.141 29.1685L38.0711 29.1487L38.0062 29.1158C37.9161 29.07 37.8051 29.0037 37.6992 28.8991C37.5915 28.7926 37.5218 28.6791 37.4724 28.5787L37.4135 28.459L37.3994 28.3265L37.0972 25.4754C37.0939 25.4494 37.079 25.4152 37.0441 25.3843C37.0083 25.3527 36.9684 25.3398 36.9366 25.3398H34.4211C34.3896 25.3398 34.3494 25.3527 34.3134 25.3844C34.2786 25.4151 34.2638 25.449 34.2605 25.4752L33.9608 28.3026C33.9447 28.5713 33.8129 28.7827 33.679 28.9161C33.565 29.0296 33.3953 29.1405 33.183 29.1809C32.9354 29.267 32.6464 29.3917 32.3929 29.5187L32.0569 28.8482M42.9739 32.5546C42.9228 32.4548 42.9228 32.355 43.025 32.2532L43.5772 33.7053C43.477 33.7053 43.3767 33.6055 43.3767 33.5057C43.2765 33.2043 43.1252 32.854 42.9739 32.5546ZM32.0569 28.8482L32.3964 29.517C32.2589 29.5867 32.0558 29.6548 31.8123 29.6241C31.5836 29.5952 31.4 29.4895 31.2627 29.3646L29.0228 27.5795L29.0124 27.5712L29.0023 27.5625C28.9933 27.5548 28.965 27.538 28.911 27.5411C28.8532 27.5445 28.8202 27.5679 28.8146 27.5736L28.8128 27.5753L28.8128 27.5753L27.0519 29.3287C27.0073 29.3732 27.0026 29.4057 27.0022 29.4206C27.0016 29.4386 27.0069 29.471 27.0407 29.5103L27.0454 29.5158L27.05 29.5214L28.9111 31.7758L28.9631 31.8388L29.0003 31.9115C29.001 31.9127 29.0022 31.915 29.0041 31.9182C29.0397 31.9811 29.2847 32.4138 29.0592 32.8807L29.0542 32.8912L29.0541 32.8912L29.0483 32.9027C28.8955 33.2071 28.7788 33.4435 28.702 33.712L28.6819 33.7823L28.6486 33.8475C28.6024 33.9376 28.5356 34.0484 28.4304 34.1539C28.3236 34.2611 28.2099 34.3303 28.1095 34.3793L27.9905 34.4373L27.8589 34.4512L24.9957 34.7521C24.967 34.7557 24.9316 34.7716 24.9008 34.8062C24.8692 34.8416 24.8574 34.8799 24.8574 34.9088V37.4137C24.8574 37.4423 24.8692 37.4809 24.9008 37.5165C24.9315 37.551 24.9665 37.5668 24.9954 37.5704L27.8352 37.8689C28.1022 37.8847 28.3134 38.0146 28.4475 38.1482C28.5613 38.2615 28.6735 38.4311 28.7145 38.6443C28.8009 38.8904 28.9258 39.1776 29.0532 39.4296L28.3838 39.7679M32.0569 28.8482C31.9567 28.8991 31.8564 28.8991 31.7542 28.7973L33.2124 28.2474C33.2124 28.3472 33.1122 28.447 33.012 28.447C32.7093 28.5468 32.3575 28.6975 32.0569 28.8482ZM28.3838 39.7679L29.0514 39.4261C29.1218 39.5636 29.191 39.7677 29.1598 40.0126C29.1301 40.2452 29.021 40.4306 28.8938 40.5677L27.05 42.8012L27.0447 42.8077L27.0392 42.814C27.0319 42.8224 27.016 42.8488 27.0189 42.8999C27.0222 42.9552 27.0447 42.9867 27.0502 42.9921L27.052 42.9938L28.8128 44.7472C28.8575 44.7917 28.8915 44.7976 28.9093 44.7981C28.9301 44.7987 28.9643 44.7924 29.0041 44.7584L29.0134 44.7506L29.0228 44.743L31.2868 42.9387L31.3466 42.8911L31.4147 42.8565C31.4161 42.8558 31.4184 42.8545 31.4218 42.8526C31.4863 42.8165 31.9164 42.5756 32.3808 42.7979L32.3912 42.8029L32.3912 42.803L32.4027 42.8087C32.7083 42.9609 32.9463 43.0773 33.2167 43.154L33.2866 43.1739L33.3515 43.2068C33.4416 43.2525 33.5526 43.3189 33.6585 43.4235C33.7662 43.5299 33.8359 43.6434 33.8853 43.7439L33.9442 43.8635L33.9583 43.9961L34.2603 46.8457C34.2604 46.8462 34.2604 46.8467 34.2605 46.8472C34.2638 46.8731 34.2787 46.9074 34.3136 46.9382C34.3494 46.9699 34.3893 46.9827 34.4211 46.9827H36.9366C36.9681 46.9827 37.0083 46.9699 37.0443 46.9382C37.0791 46.9075 37.0939 46.8735 37.0972 46.8474C37.0973 46.8469 37.0973 46.8465 37.0974 46.8461L37.3969 44.0199C37.413 43.7512 37.5448 43.5398 37.6787 43.4065C37.7927 43.2929 37.9624 43.1821 38.1747 43.1416C38.4223 43.0555 38.7113 42.9309 38.9648 42.8039L39.3008 43.4744M28.3838 39.7679C28.4349 39.8677 28.4349 39.9675 28.3327 40.0693L27.7805 38.6173C27.8807 38.6173 27.981 38.7171 27.981 38.8169C28.0812 39.1182 28.2325 39.4685 28.3838 39.7679ZM39.3008 43.4744C39.401 43.4235 39.5013 43.4235 39.6035 43.5252L38.1453 44.0751C38.1453 43.9753 38.2455 43.8755 38.3457 43.8755C38.6484 43.7757 39.0002 43.625 39.3008 43.4744Z" stroke="#97AD1D" stroke-width="1.5"/>
<path d="M23.85 52.875L48.1357 52.875C50.3449 52.875 52.1357 51.0841 52.1357 48.875L52.1357 23.3036" stroke="#97AD1D" stroke-width="1.5" stroke-linecap="round"/>
<path d="M49.05 19.7041H24.25C22.0409 19.7041 20.25 21.495 20.25 23.7041V49.5327" stroke="#97AD1D" stroke-width="1.5" stroke-linecap="round"/>
<path d="M47.25 16.875L49.8214 19.4464L47.25 22.0179" stroke="#97AD1D" stroke-width="1.5" stroke-linecap="round" stroke-linejoin="round"/>
<path d="M25.3931 55.4473L22.8216 52.8758L25.3931 50.3044" stroke="#97AD1D" stroke-width="1.5" stroke-linecap="round" stroke-linejoin="round"/>
</svg>
