<svg width="16" height="16" viewBox="0 0 16 16" fill="none" xmlns="http://www.w3.org/2000/svg">
<path fill-rule="evenodd" clip-rule="evenodd" d="M2.41608 0H13.5839C14.9183 0 16 1.08172 16 2.41608V13.5823C16 14.9167 14.9183 15.9984 13.5839 15.9984H2.41608C1.08172 15.9984 0 14.9167 0 13.5823V2.41608C0 1.08172 1.08172 0 2.41608 0ZM5.11936 13.4271V6.1564H2.70272V13.4271H5.11936ZM3.91136 5.16312C4.75408 5.16312 5.27864 4.6048 5.27864 3.90712C5.26293 3.19368 4.75411 2.65088 3.92736 2.65088C3.10072 2.65088 2.56016 3.19369 2.56016 3.90712C2.56016 4.60484 3.08458 5.16312 3.8956 5.16312H3.9113H3.91136ZM8.87359 13.4271H6.45695L6.45701 13.427C6.45701 13.427 6.48872 6.83852 6.45701 6.15628H8.87365V7.18572C9.19482 6.69031 9.76967 5.98572 11.0516 5.98572C12.6416 5.98572 13.8338 7.02484 13.8338 9.25812V13.4271H11.4174V9.5374C11.4174 8.55998 11.0675 7.89324 10.193 7.89324C9.52545 7.89324 9.12782 8.34291 8.95311 8.77708C8.8893 8.93241 8.87359 9.14949 8.87359 9.3668V13.4271Z" fill="white"/>
</svg>
