<svg width="344" height="547" viewBox="0 0 344 547" fill="none" xmlns="http://www.w3.org/2000/svg">
<path d="M101.853 100.458L101.853 100.457C143.768 56.355 176.253 32.1627 204.774 18.5969C233.274 5.04099 257.849 2.07861 284 0.500909C310.151 2.07861 334.706 5.04097 363.226 18.6066C391.767 32.1821 424.312 56.3937 466.385 100.535L466.385 100.535C512.048 148.392 536.527 179.251 549.993 204.332C563.437 229.372 565.914 248.67 567.499 273.462C565.914 298.29 563.358 317.607 549.805 342.667C536.23 367.767 511.612 398.646 465.83 446.542L465.829 446.543C423.875 490.645 391.39 514.837 362.879 528.403C334.389 541.959 309.834 544.921 283.683 546.499C257.691 544.883 233.195 541.901 204.694 528.345C176.173 514.779 143.609 490.606 101.536 446.543C56.0714 398.647 31.5919 367.768 18.0863 342.639C4.60204 317.55 2.04664 298.175 0.500965 273.231C2.04661 248.44 4.60194 229.142 18.1254 204.121C31.6705 179.059 56.2291 148.238 101.853 100.458ZM284.031 65.1132L284.002 65.1114L283.973 65.113C267.162 66.0387 251.012 67.7003 230.419 78.2007C209.844 88.6916 184.863 107.989 150.328 144.125L150.327 144.125C111.762 184.517 91.4717 209.061 80.5687 227.375C69.6417 245.73 68.1432 257.831 67.1088 273.274L67.1066 273.307L67.1088 273.341C68.1432 288.862 69.6815 301.02 80.6282 319.413C91.5509 337.766 111.841 362.329 150.327 402.721L150.328 402.721C184.863 438.857 209.844 458.097 230.419 468.568C251.012 479.049 267.161 480.73 283.968 481.81L283.998 481.812L284.029 481.81C300.799 480.846 316.949 479.165 337.542 468.655C358.116 458.154 383.098 438.857 417.593 402.721L417.232 402.376L417.593 402.721C456.158 362.291 476.469 337.708 487.392 319.365C498.338 300.982 499.857 288.862 500.891 273.418L500.893 273.385L500.891 273.351C499.857 257.83 498.318 245.672 487.362 227.298C476.429 208.964 456.118 184.439 417.593 144.125C383.097 107.989 358.116 88.749 337.541 78.2871C316.948 67.816 300.799 66.1544 284.031 65.1132Z" stroke="white"/>
</svg>
