<svg width="472" height="858" viewBox="0 0 472 858" fill="none" xmlns="http://www.w3.org/2000/svg">
<path d="M159.567 157.378L159.567 157.377C225.33 88.1862 276.316 50.2128 321.099 28.9136C365.86 7.62427 404.458 2.97619 445.5 0.500909C486.542 2.97619 525.109 7.62425 569.901 28.9287C614.715 50.2431 665.795 88.2468 731.807 157.498L732.168 157.153L731.807 157.498C803.439 232.567 841.861 280.995 863.004 320.371C884.125 359.707 888.011 390.027 890.499 428.94C888.011 467.911 884.001 498.262 862.709 537.628C841.395 577.034 802.755 625.492 730.936 700.622L730.935 700.623C665.11 769.814 614.124 807.787 569.357 829.086C524.611 850.376 486.044 855.024 445.003 857.499C404.21 854.963 365.736 850.285 320.974 828.996C276.191 807.696 225.081 769.753 159.07 700.624C87.7486 625.494 49.3257 577.036 28.1208 537.584C6.93723 498.172 2.92657 467.73 0.500965 428.577C2.92654 389.667 6.93713 359.346 28.1825 320.04C49.4495 280.694 87.9967 232.326 159.567 157.378ZM445.531 102.417L445.502 102.416L445.473 102.417C419.118 103.868 393.831 106.471 361.578 122.915C329.345 139.35 290.183 169.594 236.019 226.264L236.018 226.264C175.523 289.621 143.714 328.099 126.629 356.796C109.52 385.533 107.176 404.465 105.555 428.665L105.553 428.698L105.555 428.731C107.176 453.053 109.583 472.074 126.723 500.872C143.839 529.629 175.647 568.137 236.018 631.494L236.019 631.494C290.183 688.165 329.345 718.318 361.579 734.722C393.83 751.136 419.117 753.769 445.468 755.462L445.498 755.464L445.529 755.462C471.82 753.95 497.107 751.317 529.36 734.858C561.593 718.408 600.755 688.164 654.857 631.494L654.495 631.149L654.857 631.494C715.353 568.077 747.192 529.538 764.308 500.796C781.448 472.014 783.824 453.053 785.445 428.852L785.447 428.819L785.445 428.786C783.824 404.464 781.417 385.442 764.261 356.675C747.13 327.948 715.29 289.5 654.857 226.264C600.755 169.594 561.593 139.44 529.359 123.051C497.107 106.653 471.82 104.05 445.531 102.417Z" fill="#F0F0F0" stroke="#F0F0F0"/>
</svg>
