<svg width="32" height="32" viewBox="0 0 32 32" fill="none" xmlns="http://www.w3.org/2000/svg">
<path d="M16 32C20.2437 32 24.3128 30.3145 27.3144 27.3144C30.3145 24.3129 32 20.2437 32 16C32 11.7563 30.3145 7.68721 27.3144 4.68563C24.3129 1.68553 20.2437 0 16 0C11.7563 0 7.6872 1.68549 4.68563 4.68563C1.68553 7.6871 0 11.7563 0 16C0 20.2437 1.68549 24.3128 4.68563 27.3144C7.6871 30.3145 11.7563 32 16 32ZM7.69384 16.4214C8.26113 15.8582 9.17752 15.8582 9.74481 16.4214L13.0913 19.7678L21.5133 11.3457C22.0901 10.8507 22.9506 10.8848 23.4879 11.4221C24.0252 11.9594 24.0579 12.8185 23.5643 13.3967L14.1099 22.8511H14.1086C13.5413 23.4156 12.6249 23.4156 12.0576 22.8511L7.69382 18.4873C7.41836 18.2146 7.26425 17.8423 7.26425 17.455C7.26425 17.0663 7.41835 16.6954 7.69382 16.4213L7.69384 16.4214Z" fill="#97AD1D"/>
</svg>
