<svg width="117" height="112" viewBox="0 0 117 112" fill="none" xmlns="http://www.w3.org/2000/svg">
<path d="M58.5 0C47.7121 0.646487 38.1827 2.42827 20.9057 20.4984C2.10855 40.0664 0.637469 45.7745 0 55.9448C0.637469 66.1782 2.10855 71.8862 20.8403 91.5016C38.1827 109.556 47.7121 111.338 58.4346 112C69.2226 111.354 78.7355 109.572 96.0289 91.5016C114.891 71.8862 116.346 66.1782 117 55.9921C116.346 45.8218 114.957 40.1138 96.1433 20.5141C78.8009 2.42827 69.2879 0.646487 58.5 0Z" fill="#5778A2"/>
<g clip-path="url(#clip0_1449_5694)">
<path d="M59 69.887C58.615 69.887 58.36 70.142 58.36 70.527V76.7995C55.8 77.1195 53.7525 79.2945 53.7525 81.9845C53.7525 84.8645 56.12 87.232 59 87.232C61.88 87.232 64.2475 84.8645 64.2475 81.9845C64.2475 79.297 62.2625 77.1195 59.64 76.7995V70.527C59.64 70.1445 59.385 69.887 59 69.887ZM62.9675 81.9843C62.9675 84.1592 61.175 85.9518 59 85.9518C56.825 85.9518 55.0325 84.1592 55.0325 81.9843C55.0325 79.8093 56.825 78.0168 59 78.0168C61.175 78.0143 62.9675 79.8068 62.9675 81.9843ZM59 42.1116C59.385 42.1116 59.64 41.8566 59.64 41.4716V35.1991C62.2 34.8791 64.2475 32.7041 64.2475 30.0141C64.2475 27.1341 61.88 24.7666 59 24.7666C56.12 24.7666 53.7525 27.1341 53.7525 30.0141C53.7525 32.7016 55.7376 34.8791 58.36 35.1991V41.4716C58.36 41.8541 58.615 42.1116 59 42.1116ZM55.0325 30.0143C55.0325 27.8394 56.825 26.0469 59 26.0469C61.175 26.0469 62.9675 27.8394 62.9675 30.0143C62.9675 32.1893 61.175 33.9818 59 33.9818C56.825 33.9843 55.0325 32.1918 55.0325 30.0143ZM84.9852 50.7516C82.2977 50.7516 80.1201 52.7367 79.8001 55.3591H73.5276C73.1426 55.3591 72.8876 55.6141 72.8876 55.9991C72.8876 56.3841 73.1426 56.6391 73.5276 56.6391H79.8001C80.1201 59.1991 82.2951 61.2466 84.9852 61.2466C87.8652 61.2466 90.2327 58.8791 90.2327 55.9991C90.2327 53.1191 87.8652 50.7516 84.9852 50.7516ZM84.9852 59.9664C82.8102 59.9664 81.0177 58.1738 81.0177 55.9989C81.0177 53.8239 82.8102 52.0314 84.9852 52.0314C87.1601 52.0314 88.9527 53.8239 88.9527 55.9989C88.9527 58.1738 87.1601 59.9664 84.9852 59.9664ZM33.0152 61.2463C35.7027 61.2463 37.8803 59.2613 38.2003 56.6389H44.4728C44.8578 56.6389 45.1128 56.3839 45.1128 55.9989C45.1128 55.6139 44.8578 55.3589 44.4728 55.3589H38.2003C37.8803 52.7989 35.7053 50.7514 33.0152 50.7514C30.1352 50.7514 27.7678 53.1189 27.7678 55.9989C27.7678 58.8789 30.1352 61.2463 33.0152 61.2463ZM33.0152 52.0316C35.1902 52.0316 36.9827 53.8241 36.9827 55.9991C36.9827 58.1741 35.1902 59.9666 33.0152 59.9666C30.8403 59.9666 29.0478 58.1741 29.0478 55.9991C29.0478 53.8241 30.8403 52.0316 33.0152 52.0316ZM77.3679 69.119C76.2154 69.119 75.0629 69.504 74.1679 70.2065L69.6879 65.7265C69.4329 65.4715 69.0479 65.4715 68.7929 65.7265C68.5379 65.9815 68.5379 66.3665 68.7929 66.6215L73.2729 71.1015C72.5679 71.9964 72.1854 73.1489 72.1854 74.3015C72.1854 75.7089 72.7604 76.9889 73.7204 78.014C74.6804 78.974 76.0254 79.5489 77.4329 79.5489C78.8404 79.5489 80.1204 78.9739 81.1454 78.014C83.1929 75.9665 83.1929 72.639 81.1454 70.5887C80.1204 69.6937 78.7754 69.119 77.3679 69.119ZM80.1854 77.1843C79.4179 77.9518 78.4579 78.3368 77.3704 78.3368C76.2829 78.3368 75.3229 77.9518 74.5554 77.1843C73.7879 76.4168 73.4029 75.4568 73.4029 74.3693C73.4029 73.2818 73.7879 72.3218 74.5554 71.5543C75.3229 70.7868 76.2829 70.4018 77.3704 70.4018C78.4579 70.4018 79.4179 70.7868 80.1854 71.5543C81.7203 73.1518 81.7203 75.6467 80.1854 77.1843ZM44.3454 33.919C43.3854 32.959 42.0403 32.384 40.6328 32.384C39.2254 32.384 37.9454 32.959 36.9203 33.919C34.8728 35.9665 34.8728 39.294 36.9203 41.3443C37.8803 42.3043 39.2254 42.8792 40.6328 42.8792C41.7854 42.8792 42.9379 42.4942 43.8328 41.7918L48.3128 46.2718C48.4403 46.3993 48.6328 46.4643 48.7603 46.4643C48.8878 46.4643 49.0803 46.3993 49.2078 46.2718C49.4629 46.0168 49.4629 45.6318 49.2078 45.3768L44.7278 40.8968C46.3278 38.7843 46.2004 35.7738 44.3454 33.919ZM37.8154 40.3843C36.2805 38.8493 36.2805 36.3518 37.8154 34.8168C38.5829 34.0493 39.5429 33.6643 40.6304 33.6643C41.7179 33.6643 42.6779 34.0493 43.4454 34.8168C44.9804 36.3518 44.9804 38.8493 43.4454 40.3843C42.6779 41.1518 41.7179 41.5368 40.6304 41.5368C39.5454 41.5993 38.5854 41.1518 37.8154 40.3843ZM77.3681 42.8792C78.7756 42.8792 80.0556 42.3042 81.0806 41.3443C83.1281 39.2968 83.1281 35.9693 81.0806 33.919C80.1206 32.959 78.7756 32.384 77.3681 32.384C75.9606 32.384 74.6806 32.959 73.6556 33.919C71.8006 35.774 71.6081 38.784 73.2081 40.8316L68.7281 45.3116C68.4731 45.5666 68.4731 45.9516 68.7281 46.2066C68.8556 46.3341 69.0481 46.3991 69.1756 46.3991C69.3031 46.3991 69.4956 46.3341 69.6231 46.2066L74.1031 41.7266C75.0656 42.4316 76.2156 42.8792 77.3681 42.8792ZM74.6156 34.814C75.383 34.0465 76.3431 33.6614 77.4305 33.6614C78.518 33.6614 79.478 34.0464 80.2455 34.814C81.7805 36.3489 81.7805 38.8465 80.2455 40.3814C79.478 41.1489 78.518 41.534 77.4305 41.534C76.4055 41.534 75.383 41.149 74.6156 40.3814C73.0156 38.8465 73.0156 36.3514 74.6156 34.814ZM40.6328 69.1192C39.2254 69.1192 37.9454 69.6942 36.9203 70.6542C34.8728 72.7017 34.8728 76.0292 36.9203 78.0795C37.8803 79.0395 39.2254 79.6145 40.6328 79.6145C42.0403 79.6145 43.3203 79.0395 44.3454 78.0795C46.2003 76.2245 46.3928 73.2145 44.7929 71.1669L49.2729 66.6869C49.5279 66.4319 49.5279 66.0469 49.2729 65.7919C49.0179 65.5369 48.6329 65.5369 48.3779 65.7919L43.8979 70.2719C42.9354 69.5669 41.7854 69.1192 40.6328 69.1192ZM43.3854 77.1845C42.6179 77.952 41.6579 78.337 40.5704 78.337C39.4829 78.337 38.5229 77.952 37.7554 77.1845C36.2204 75.6495 36.2204 73.152 37.7554 71.617C38.5229 70.8495 39.4829 70.4645 40.5704 70.4645C41.6579 70.4645 42.6179 70.8495 43.3854 71.617C44.9854 73.152 44.9854 75.6471 43.3854 77.1845ZM53.5601 52.6719C53.5601 50.4969 55.2876 48.7669 57.4651 48.7669H58.3601V46.2719C58.3601 45.8869 58.6151 45.6319 59.0001 45.6319C59.3851 45.6319 59.6401 45.8869 59.6401 46.2719V48.7669H62.7751C63.16 48.7669 63.4151 49.0219 63.4151 49.4069C63.4151 49.7919 63.16 50.0469 62.7751 50.0469H57.5276C56.0551 50.0469 54.9025 51.1994 54.9025 52.6719C54.9025 54.1444 56.0551 55.2969 57.5276 55.2969H60.5351C62.71 55.2969 64.4401 57.0244 64.4401 59.2019C64.4401 61.3769 62.7126 63.107 60.5351 63.107L59.6401 63.1045V65.5994C59.6401 65.9844 59.3851 66.2394 59.0001 66.2394C58.6151 66.2394 58.3601 65.9844 58.3601 65.5994V63.1045H55.0951C54.7101 63.1045 54.4551 62.8495 54.4551 62.4645C54.4551 62.0795 54.7101 61.8245 55.0951 61.8245H60.47C61.9425 61.8245 63.0951 60.6719 63.0951 59.1994C63.0951 57.7269 61.945 56.6394 60.4725 56.6394H57.465C55.3525 56.6394 53.5601 54.8469 53.5601 52.6719Z" fill="white"/>
</g>
<defs>
<clipPath id="clip0_1449_5694">
<rect width="64" height="64" fill="white" transform="translate(27 24)"/>
</clipPath>
</defs>
</svg>
