<svg width="689" height="946" viewBox="0 0 689 946" fill="none" xmlns="http://www.w3.org/2000/svg">
<path d="M197 0C106.271 5.46051 26.1266 20.5102 -119.178 173.138C-277.267 338.418 -289.639 386.631 -295 472.534C-289.639 558.97 -277.267 607.182 -119.728 772.862C26.1266 925.357 106.271 940.406 196.45 946C287.179 940.539 367.186 925.49 512.628 772.862C671.267 607.182 683.501 558.97 689 472.933C683.501 387.03 671.816 338.818 513.59 173.271C367.736 20.5102 287.729 5.46051 197 0ZM197 113.472C255.012 117.068 308.349 124.926 427.81 249.852C561.292 389.294 568.303 419.261 571.877 472.8C568.303 526.074 561.429 556.04 427.81 695.882C308.349 820.808 255.012 829.065 197 832.395C138.851 828.666 85.6505 820.808 -33.9472 695.882C-167.292 556.173 -174.303 526.207 -177.877 472.667C-174.303 419.394 -167.567 389.561 -33.9472 249.852C85.6505 124.926 138.851 116.668 197 113.472Z" fill="#ABAD23"/>
</svg>
